<?xml version="1.0" encoding="utf-8"?>
<!-- Generator: Adobe Illustrator 19.1.0, SVG Export Plug-In . SVG Version: 6.00 Build 0)  -->
<svg version="1.1" id="Layer_1" xmlns="http://www.w3.org/2000/svg" xmlns:xlink="http://www.w3.org/1999/xlink" x="0px" y="0px"
	 viewBox="0 0 78.2 78.2" style="enable-background:new 0 0 78.2 78.2;" xml:space="preserve">
<style type="text/css">
	.st0{fill:#FFFFFF;}
</style>
<circle cx="-86.4" cy="96.1" r="39.1"/>
<text transform="matrix(1 0 0 1 -113.4222 105.0695)" class="st0" style="font-family:'Rubik-Light'; font-size:30.6916px;">A4x</text>
<circle cx="39.1" cy="39.1" r="39.1"/>
<g>
	<path class="st0" d="M12.9,47.9c-0.1-0.1-0.2-0.3-0.2-0.4l0.1-0.3l7.8-19.9c0.2-0.4,0.5-0.6,0.9-0.6h1c0.4,0,0.7,0.2,0.9,0.6
		l7.8,19.9l0.1,0.3c0,0.2-0.1,0.3-0.2,0.4c-0.1,0.1-0.3,0.2-0.4,0.2H30c-0.2,0-0.3-0.1-0.4-0.2c-0.1-0.1-0.2-0.2-0.2-0.3l-1.9-4.9
		H16.6l-1.9,4.9c0,0.1-0.1,0.2-0.2,0.3c-0.1,0.1-0.3,0.2-0.4,0.2h-0.6C13.2,48.1,13.1,48,12.9,47.9z M17.3,40.9h9.4L22,28.8
		L17.3,40.9z"/>
	<path class="st0" d="M43.9,47.9c-0.1-0.1-0.2-0.3-0.2-0.5v-4.8H33.6c-0.2,0-0.4-0.1-0.5-0.2C33,42.2,33,42.1,33,41.9v-0.5
		c0-0.3,0.1-0.6,0.3-0.9l9.3-13.4c0.1-0.2,0.3-0.3,0.5-0.4c0.2-0.1,0.4-0.1,0.7-0.1H45c0.2,0,0.4,0.1,0.5,0.2
		c0.1,0.1,0.2,0.3,0.2,0.5v13.4h2.8c0.2,0,0.4,0.1,0.5,0.2c0.1,0.1,0.2,0.3,0.2,0.5v0.5c0,0.2-0.1,0.4-0.2,0.5
		c-0.1,0.1-0.3,0.2-0.5,0.2h-2.8v4.8c0,0.2-0.1,0.4-0.2,0.5c-0.1,0.1-0.3,0.2-0.5,0.2h-0.6C44.2,48.1,44.1,48,43.9,47.9z M35.4,40.7
		h8.4V28.8L35.4,40.7z"/>
	<path class="st0" d="M51.5,47.9c-0.1-0.1-0.2-0.3-0.2-0.4c0-0.2,0.1-0.4,0.2-0.6l5.4-6.9l-5.1-6.6c-0.2-0.2-0.2-0.4-0.2-0.6
		c0-0.2,0.1-0.3,0.2-0.4c0.1-0.1,0.3-0.2,0.4-0.2h0.6c0.2,0,0.3,0,0.4,0.1c0.1,0.1,0.2,0.2,0.4,0.4l4.6,5.9l4.6-5.9
		c0,0,0.1-0.1,0.2-0.2c0.1-0.1,0.2-0.2,0.3-0.2c0.1-0.1,0.2-0.1,0.3-0.1h0.6c0.2,0,0.3,0.1,0.4,0.2c0.1,0.1,0.2,0.3,0.2,0.4
		c0,0.2-0.1,0.4-0.2,0.6L59.4,40l5.4,6.8c0.2,0.2,0.2,0.4,0.2,0.6c0,0.2-0.1,0.3-0.2,0.4c-0.1,0.1-0.3,0.2-0.4,0.2h-0.6
		c-0.3,0-0.5-0.2-0.8-0.5l-4.8-6.2l-4.8,6.2C53.2,47.8,53,47.9,53,48c-0.1,0.1-0.2,0.1-0.4,0.1h-0.6C51.8,48.1,51.6,48,51.5,47.9z"
		/>
</g>
</svg>
